<svg width="16" height="16" viewBox="0 0 16 16" fill="none" xmlns="http://www.w3.org/2000/svg">
<path d="M7.2929 8.00002L3.1459 3.85402C3.09941 3.80753 3.06254 3.75234 3.03738 3.6916C3.01222 3.63087 2.99927 3.56577 2.99927 3.50002C2.99927 3.43428 3.01222 3.36918 3.03738 3.30844C3.06254 3.2477 3.09941 3.19251 3.1459 3.14602C3.19239 3.09953 3.24758 3.06266 3.30832 3.0375C3.36906 3.01234 3.43416 2.99939 3.4999 2.99939C3.56564 2.99939 3.63074 3.01234 3.69148 3.0375C3.75222 3.06266 3.80741 3.09953 3.8539 3.14602L7.9999 7.29302L12.1459 3.14602C12.2398 3.05213 12.3671 2.99939 12.4999 2.99939C12.6327 2.99939 12.76 3.05213 12.8539 3.14602C12.9478 3.23991 13.0005 3.36725 13.0005 3.50002C13.0005 3.6328 12.9478 3.76013 12.8539 3.85402L8.7069 8.00002L12.8539 12.146C12.9478 12.2399 13.0005 12.3672 13.0005 12.5C13.0005 12.6328 12.9478 12.7601 12.8539 12.854C12.76 12.9479 12.6327 13.0007 12.4999 13.0007C12.3671 13.0007 12.2398 12.9479 12.1459 12.854L7.9999 8.70702L3.8539 12.854C3.76001 12.9479 3.63267 13.0007 3.4999 13.0007C3.36712 13.0007 3.23979 12.9479 3.1459 12.854C3.05201 12.7601 2.99927 12.6328 2.99927 12.5C2.99927 12.3672 3.05201 12.2399 3.1459 12.146L7.2929 8.00002Z" fill="#F7F7F7"/>
</svg>
